<svg width="167" height="28" viewBox="0 0 167 28" fill="none" xmlns="http://www.w3.org/2000/svg">
  <g clip-path="url(#clip0_4_1289)">
    <path fill-rule="evenodd" clip-rule="evenodd"
      d="M0 8.12681V12.1918H11.8289C13.2036 12.1918 14.962 10.9129 14.962 8.79842C14.962 7.94685 15.2849 7.39414 14.2906 6.26944L12.7784 4.46669C11.912 3.65369 12.8807 3.65369 13.6096 3.65369H18.6034V12.1918H22.5644V3.6569H27.9034V0H10.6172C8.51361 0 7.48418 2.0309 7.54492 3.08812C7.60247 4.14535 7.79749 5.47571 9.54305 7.0728C11.1384 8.52849 8.75339 8.13002 8.51361 8.13002H0V8.12681Z"
      fill="white" fill-opacity="0.8" />
    <path fill-rule="evenodd" clip-rule="evenodd"
      d="M36.6631 0H30.2723L26.6917 12.1918H30.6783L31.3241 10.4855H35.5314L36.1548 12.1918H40.0615L36.6631 0ZM32.2129 7.55803L33.5876 3.08491L34.8824 7.55803H32.2129Z"
      fill="white" fill-opacity="0.8" />
    <path fill-rule="evenodd" clip-rule="evenodd"
      d="M52.6769 8.12681C51.1392 8.12681 51.1392 7.55803 51.1392 7.55803C52.4563 7.55803 53.6233 5.62996 53.6233 3.6569C53.6233 1.68385 51.7051 0 50.1673 0H41.5706V12.1918H45.9377V8.12681C45.9377 8.12681 47.7983 10.3216 48.7702 11.2149C49.7421 12.1083 49.822 12.1918 51.1392 12.1918H57.9968V8.12681H52.6769ZM48.7159 5.28291H45.9441V3.08812H48.7159C49.9883 3.08812 50.2057 5.28291 48.7159 5.28291Z"
      fill="white" fill-opacity="0.8" />
    <path fill-rule="evenodd" clip-rule="evenodd"
      d="M0 13.7375H4.46941L5.60115 17.8026L6.65296 13.7375H11.343L12.5578 17.8026L13.7727 13.7375H17.6538L14.0956 25.9326H10.5341L8.97718 20.1612L7.21883 25.9326H3.58064L0 13.7375Z"
      fill="white" fill-opacity="0.8" />
    <path fill-rule="evenodd" clip-rule="evenodd"
      d="M26.8259 13.8081H20.4351L16.8545 25.9999H20.8412L21.4869 24.2936H25.6942L26.3176 25.9999H30.2244L26.8259 13.8081ZM22.3757 21.3661L23.7504 16.893L25.0452 21.3661H22.3757Z"
      fill="white" fill-opacity="0.8" />
    <path fill-rule="evenodd" clip-rule="evenodd"
      d="M52.7602 17.3977C52.0313 17.3977 51.2385 17.4812 52.108 18.2942L53.6202 20.097C54.6145 21.2217 54.5985 21.6908 54.5985 22.5424C54.5985 24.6568 52.5173 25.9358 51.1426 25.9358L41.5835 26.0001C40.2664 26.0001 40.1864 25.9197 39.2145 25.0232C38.2427 24.1298 36.382 21.9351 36.382 21.9351V26.0001H32.0149V13.8082H40.6116C42.1494 13.8082 44.0676 15.4889 44.0676 17.4651C44.0676 19.4414 42.9007 21.3663 41.5835 21.3663C41.5835 21.3663 42.1622 21.9511 43.1341 21.9511C44.106 21.9511 47.8432 21.9543 47.8432 21.9543C48.083 21.9543 50.4648 22.3528 48.8727 20.8971C47.1239 19.3 46.9321 17.9697 46.8746 16.9124C46.817 15.8552 47.725 13.7375 49.8286 13.7375H58.0033V17.3977H52.7634H52.7602ZM39.157 19.0879H36.3852V16.8932H39.157C40.4294 16.8932 40.6468 19.0879 39.157 19.0879Z"
      fill="white" fill-opacity="0.8" />
  </g>
  <path
    d="M72.8 13.255C71.9387 13.255 71.1283 13.1077 70.369 12.813C69.621 12.507 68.9637 12.082 68.397 11.538C67.8303 10.994 67.3883 10.348 67.071 9.6C66.7537 8.852 66.595 8.03033 66.595 7.135V6.965C66.595 6.06967 66.7537 5.248 67.071 4.5C67.3883 3.752 67.8303 3.106 68.397 2.562C68.9637 2.018 69.621 1.59867 70.369 1.304C71.1283 0.997999 71.9387 0.844999 72.8 0.844999C73.6387 0.844999 74.398 0.980999 75.078 1.253C75.758 1.525 76.37 1.916 76.914 2.426L75.163 4.466C74.517 3.82 73.7293 3.497 72.8 3.497C72.3013 3.497 71.8423 3.582 71.423 3.752C71.0037 3.922 70.641 4.16 70.335 4.466C70.029 4.772 69.791 5.14033 69.621 5.571C69.4623 5.99033 69.383 6.455 69.383 6.965V7.135C69.383 7.645 69.4623 8.11533 69.621 8.546C69.791 8.96533 70.029 9.328 70.335 9.634C70.641 9.94 71.0037 10.178 71.423 10.348C71.8423 10.518 72.3013 10.603 72.8 10.603C73.7633 10.603 74.5793 10.2517 75.248 9.549L76.999 11.589C76.4437 12.1103 75.809 12.5183 75.095 12.813C74.3923 13.1077 73.6273 13.255 72.8 13.255ZM85.5365 13V1.1H88.2735V13H85.5365ZM78.0395 13V1.1H80.7765V13H78.0395ZM79.4335 8.087V5.622H86.5905V8.087H79.4335ZM89.1436 13L93.3256 1.1H96.7086L100.874 13H98.0856L94.8386 3.157H95.1956L91.9316 13H89.1436ZM91.0986 10.399L91.9656 8.121H98.1026L98.9866 10.399H91.0986ZM101.764 13V1.1H106.456C107.759 1.1 108.802 1.44 109.584 2.12C110.377 2.78867 110.774 3.752 110.774 5.01C110.774 6.29067 110.377 7.271 109.584 7.951C108.802 8.631 107.759 8.971 106.456 8.971H103.005V6.71H106.32C106.818 6.71 107.221 6.557 107.527 6.251C107.833 5.945 107.986 5.54833 107.986 5.061C107.986 4.57367 107.833 4.17133 107.527 3.854C107.221 3.53667 106.818 3.378 106.32 3.378H103.362L104.484 2.358V13H101.764ZM108.037 13L105.436 7.798H108.36L111.131 13H108.037ZM111.241 13L115.423 1.1H118.806L122.971 13H120.183L116.936 3.157H117.293L114.029 13H111.241ZM113.196 10.399L114.063 8.121H120.2L121.084 10.399H113.196ZM129.089 13.255C128.228 13.255 127.418 13.1077 126.658 12.813C125.91 12.507 125.253 12.082 124.686 11.538C124.12 10.994 123.678 10.348 123.36 9.6C123.043 8.852 122.884 8.03033 122.884 7.135V6.965C122.884 6.06967 123.043 5.248 123.36 4.5C123.678 3.752 124.12 3.106 124.686 2.562C125.253 2.018 125.91 1.59867 126.658 1.304C127.418 0.997999 128.228 0.844999 129.089 0.844999C129.928 0.844999 130.687 0.980999 131.367 1.253C132.047 1.525 132.659 1.916 133.203 2.426L131.452 4.466C130.806 3.82 130.019 3.497 129.089 3.497C128.591 3.497 128.132 3.582 127.712 3.752C127.293 3.922 126.93 4.16 126.624 4.466C126.318 4.772 126.08 5.14033 125.91 5.571C125.752 5.99033 125.672 6.455 125.672 6.965V7.135C125.672 7.645 125.752 8.11533 125.91 8.546C126.08 8.96533 126.318 9.328 126.624 9.634C126.93 9.94 127.293 10.178 127.712 10.348C128.132 10.518 128.591 10.603 129.089 10.603C130.053 10.603 130.869 10.2517 131.537 9.549L133.288 11.589C132.733 12.1103 132.098 12.5183 131.384 12.813C130.682 13.1077 129.917 13.255 129.089 13.255ZM136.573 13V2.239H139.31V13H136.573ZM133.377 3.565V1.1H142.557V3.565H133.377ZM145.556 13C144.956 13 144.457 12.8073 144.06 12.422C143.675 12.0253 143.482 11.5267 143.482 10.926V3.174C143.482 2.57333 143.675 2.08033 144.06 1.695C144.457 1.29833 144.956 1.1 145.556 1.1H151.659V3.565H146.508C146.418 3.565 146.338 3.599 146.27 3.667C146.202 3.735 146.168 3.81433 146.168 3.905V10.195C146.168 10.2857 146.202 10.365 146.27 10.433C146.338 10.501 146.418 10.535 146.508 10.535H151.659V13H145.556ZM144.774 8.189V5.843H151.302V8.189H144.774ZM153.355 13V1.1H158.047C159.35 1.1 160.393 1.44 161.175 2.12C161.968 2.78867 162.365 3.752 162.365 5.01C162.365 6.29067 161.968 7.271 161.175 7.951C160.393 8.631 159.35 8.971 158.047 8.971H154.596V6.71H157.911C158.409 6.71 158.812 6.557 159.118 6.251C159.424 5.945 159.577 5.54833 159.577 5.061C159.577 4.57367 159.424 4.17133 159.118 3.854C158.812 3.53667 158.409 3.378 157.911 3.378H154.953L156.075 2.358V13H153.355ZM159.628 13L157.027 7.798H159.951L162.722 13H159.628ZM72.579 27.187C71.4797 27.187 70.4993 26.932 69.638 26.422C68.7767 25.9007 68.1023 25.181 67.615 24.263C67.1277 23.345 66.884 22.2797 66.884 21.067V20.914C66.884 19.724 67.1277 18.6813 67.615 17.786C68.1023 16.8793 68.7767 16.1767 69.638 15.678C70.4993 15.168 71.4797 14.913 72.579 14.913C73.6897 14.913 74.67 15.168 75.52 15.678C76.3813 16.1767 77.0557 16.8793 77.543 17.786C78.0303 18.6813 78.274 19.724 78.274 20.914V21.067C78.274 22.2797 78.0303 23.345 77.543 24.263C77.0557 25.181 76.3813 25.9007 75.52 26.422C74.67 26.932 73.6897 27.187 72.579 27.187ZM72.579 26.082C73.463 26.082 74.245 25.8723 74.925 25.453C75.605 25.0337 76.1377 24.45 76.523 23.702C76.9197 22.954 77.118 22.0757 77.118 21.067V20.914C77.118 19.9393 76.9197 19.0837 76.523 18.347C76.1377 17.6103 75.605 17.038 74.925 16.63C74.245 16.222 73.463 16.018 72.579 16.018C71.695 16.018 70.913 16.222 70.233 16.63C69.553 17.038 69.0147 17.6103 68.618 18.347C68.2327 19.0837 68.04 19.9393 68.04 20.914V21.067C68.04 22.0757 68.2327 22.954 68.618 23.702C69.0147 24.45 69.553 25.0337 70.233 25.453C70.913 25.8723 71.695 26.082 72.579 26.082ZM80.338 27V16.936C80.338 16.4147 80.508 15.9783 80.848 15.627C81.1994 15.2757 81.6414 15.1 82.174 15.1H87.427V16.137H82.514C82.2194 16.137 81.97 16.239 81.766 16.443C81.562 16.647 81.46 16.8963 81.46 17.191V27H80.338ZM80.933 21.9V20.863H87.07V21.9H80.933ZM94.3572 27V15.593H95.4962V27H94.3572ZM90.6682 16.137V15.1H99.1852V16.137H90.6682ZM108.693 27V15.1H109.815V27H108.693ZM100.635 27V15.1H101.774V27H100.635ZM101.264 21.39V20.353H109.101V21.39H101.264ZM114.331 27C113.799 27 113.357 26.8243 113.005 26.473C112.654 26.1217 112.478 25.6853 112.478 25.164V16.936C112.478 16.4147 112.654 15.9783 113.005 15.627C113.357 15.2757 113.799 15.1 114.331 15.1H119.652V16.137H114.654C114.348 16.137 114.093 16.239 113.889 16.443C113.697 16.647 113.6 16.8963 113.6 17.191V24.909C113.6 25.2037 113.697 25.453 113.889 25.657C114.093 25.861 114.348 25.963 114.654 25.963H119.652V27H114.331ZM113.073 21.543V20.54H119.295V21.543H113.073ZM125.48 27V15.1H129.356C130.184 15.1 130.949 15.2417 131.651 15.525C132.354 15.797 132.966 16.188 133.487 16.698C134.009 17.208 134.411 17.8143 134.694 18.517C134.989 19.2083 135.136 19.9733 135.136 20.812V21.016C135.136 21.9 134.989 22.7047 134.694 23.43C134.4 24.1553 133.992 24.79 133.47 25.334C132.949 25.8667 132.337 26.2803 131.634 26.575C130.932 26.8583 130.172 27 129.356 27H125.48ZM126.619 26.405L126.143 25.929H129.288C130.184 25.929 130.983 25.7193 131.685 25.3C132.399 24.8807 132.96 24.3027 133.368 23.566C133.776 22.8293 133.98 21.9793 133.98 21.016V20.812C133.98 19.894 133.776 19.0893 133.368 18.398C132.972 17.6953 132.416 17.1513 131.702 16.766C131 16.3693 130.195 16.171 129.288 16.171H126.143L126.619 15.695V26.405ZM135.519 27L140.126 15.1H141.469L146.093 27H144.92L140.704 15.984H140.925L136.675 27H135.519ZM137.372 23.6L137.763 22.614H143.866L144.257 23.6H137.372ZM149.976 21.186H149.517L153.495 15.1H154.736L150.316 21.917V27H149.177V21.917L144.757 15.1H145.998L149.976 21.186Z"
    fill="white" fill-opacity="0.8" />
</svg>
  